HIERARCHY
ROOT root
{
	OFFSET 0.000000 0.000000 0.000000
	CHANNELS 6 Xposition Yposition Zposition Zrotation Yrotation Xrotation
	JOINT lhip
	{
		OFFSET 0.058581 -0.082280 -0.017664
		CHANNELS 3 Zrotation Yrotation Xrotation
		JOINT lknee
		{
			OFFSET 0.043451 -0.386469 0.008037
			CHANNELS 3 Zrotation Yrotation Xrotation
			JOINT lankle
			{
				OFFSET -0.014790 -0.426874 -0.037428
				CHANNELS 3 Zrotation Yrotation Xrotation
				JOINT ltoe
				{
					OFFSET 0.041054 -0.060286 0.122042
					CHANNELS 3 Zrotation Yrotation Xrotation
					End Site
					{
						OFFSET 0.000000 0.000000 0.000000
					}
				}
			}
		}
	}
	JOINT rhip
	{
		OFFSET -0.060310 -0.090513 -0.013543
		CHANNELS 3 Zrotation Yrotation Xrotation
		JOINT rknee
		{
			OFFSET -0.043257 -0.383688 -0.004843
			CHANNELS 3 Zrotation Yrotation Xrotation
			JOINT rankle
			{
				OFFSET 0.019056 -0.420046 -0.034562
				CHANNELS 3 Zrotation Yrotation Xrotation
				JOINT rtoe
				{
					OFFSET -0.034840 -0.062106 0.130323
					CHANNELS 3 Zrotation Yrotation Xrotation
					End Site
					{
						OFFSET 0.000000 0.000000 0.000000
					}
				}
			}
		}
	}
	JOINT lowerback
	{
		OFFSET 0.004439 0.124404 -0.038385
		CHANNELS 3 Zrotation Yrotation Xrotation
		JOINT upperback
		{
			OFFSET 0.004488 0.137956 0.026820
			CHANNELS 3 Zrotation Yrotation Xrotation
			JOINT chest
			{
				OFFSET -0.002265 0.056032 0.002855
				CHANNELS 3 Zrotation Yrotation Xrotation
				JOINT lowerneck
				{
					OFFSET -0.013390 0.211636 -0.033468
					CHANNELS 3 Zrotation Yrotation Xrotation
					JOINT upperneck
					{
						OFFSET 0.010113 0.088937 0.050410
						CHANNELS 3 Zrotation Yrotation Xrotation
						End Site
						{
							OFFSET 0.000000 0.000000 0.000000
						}
					}
				}
				JOINT lclavicle
				{
					OFFSET 0.071702 0.114000 -0.018898
					CHANNELS 3 Zrotation Yrotation Xrotation
					JOINT lshoulder
					{
						OFFSET 0.122921 0.045205 -0.019046
						CHANNELS 3 Zrotation Yrotation Xrotation
						JOINT lelbow
						{
							OFFSET 0.255332 -0.015649 -0.022946
							CHANNELS 3 Zrotation Yrotation Xrotation
							JOINT lwrist
							{
								OFFSET 0.265709 0.012698 -0.007375
								CHANNELS 3 Zrotation Yrotation Xrotation
								End Site
								{
									OFFSET 0.000000 0.000000 0.000000
								}
							}
						}
					}
				}
				JOINT rclavicle
				{
					OFFSET -0.082954 0.112472 -0.023707
					CHANNELS 3 Zrotation Yrotation Xrotation
					JOINT rshoulder
					{
						OFFSET -0.113228 0.046853 -0.008472
						CHANNELS 3 Zrotation Yrotation Xrotation
						JOINT relbow
						{
							OFFSET -0.260127 -0.014369 -0.031269
							CHANNELS 3 Zrotation Yrotation Xrotation
							JOINT rwrist
							{
								OFFSET -0.269108 0.006794 -0.006027
								CHANNELS 3 Zrotation Yrotation Xrotation
								End Site
								{
									OFFSET 0.000000 0.000000 0.000000
								}
							}
						}
					}
				}
			}
		}
	}
}
MOTION
Frames: 8
Frame Time: 0.033333
0.248971 0.562623 0.988398 -44.893874 1.479237 91.995633 4.455815 -1.654368 -7.036016 -4.930463 -8.175851 -3.248212 2.010289 1.341871 -13.217725 0.000000 -0.000000 0.000000 -8.132586 -7.948106 -6.733135 1.330669 -12.367894 19.587756 8.615072 -19.423953 -19.721560 0.000000 -0.000000 0.000000 -2.411054 2.379910 9.401994 -2.892569 -1.855039 -6.559118 -0.739654 -0.058422 1.435780 15.153672 -12.680178 -4.320282 3.808387 -5.430233 13.355007 -30.703070 -2.924603 -2.424634 -41.014618 -4.165977 2.585474 13.807790 -22.596734 -17.226769 17.141404 -11.267920 6.610202 9.214351 9.090777 -12.730192 -5.106143 21.030848 -16.144159 -99.004501 64.583091 -84.224713 -22.328504 36.613487 30.774395 
0.245746 0.567617 0.988538 -44.372475 1.683923 91.837561 5.088083 -1.420212 -7.263551 -4.909635 -8.381094 -2.835525 1.581257 0.729323 -13.372275 0.000000 -0.000000 0.000000 -7.594892 -8.120689 -6.719959 1.441407 -11.797783 20.057096 8.282451 -19.138476 -19.579037 0.000000 -0.000000 0.000000 -2.634636 2.594705 9.509736 -2.596463 -1.976395 -6.488593 -0.786913 -0.180877 1.312141 15.780297 -12.223256 -4.418326 3.783254 -6.035105 13.657868 -30.621738 -3.039736 -2.389359 -41.062514 -3.879940 2.310330 14.358606 -22.905829 -16.984784 15.807830 -10.755711 6.102579 9.874972 9.284432 -13.334737 -4.321181 22.719461 -19.769686 -90.334997 58.217200 -78.105285 -22.561224 31.086515 30.316050 
0.242616 0.572548 0.988617 -44.024681 1.851385 91.582509 5.562471 -1.016757 -7.320626 -4.742357 -8.834618 -2.500831 1.163398 0.333379 -13.640450 0.000000 -0.000000 0.000000 -7.159121 -8.306187 -6.494060 1.365754 -11.335663 20.283903 8.088872 -18.195699 -19.571561 0.000000 -0.000000 0.000000 -2.949222 2.818983 9.791274 -2.210780 -2.157464 -6.575013 -0.714624 -0.399652 1.131427 16.418306 -11.153525 -4.372580 3.121144 -6.949592 13.960288 -31.016332 -2.869682 -2.333021 -40.727783 -3.508337 2.347586 14.906465 -23.495850 -16.177127 15.838823 -9.473140 4.999362 11.437322 9.927248 -13.945591 -4.788118 25.937089 -23.818664 -83.839172 51.956990 -76.019984 -28.729821 26.152321 24.075151 
0.239709 0.577432 0.988283 -43.969825 1.889424 91.279513 5.877808 -0.809561 -7.129451 -4.461584 -9.117576 -2.531678 0.557391 0.175661 -13.749521 0.000000 -0.000000 0.000000 -6.876536 -8.238124 -6.231272 1.256723 -11.031326 20.411458 7.988613 -16.868974 -19.643153 0.000000 -0.000000 0.000000 -3.269783 3.095389 10.086731 -1.846144 -2.225345 -6.676079 -0.666395 -0.548273 0.976286 16.838440 -9.462034 -4.315621 2.235733 -8.075754 14.082123 -31.126396 -2.746880 -2.566467 -40.719963 -3.311147 3.239750 15.048511 -23.100732 -15.607809 18.025427 -8.797661 2.741125 12.514807 10.399405 -14.620263 -4.806507 29.877502 -26.112012 -81.100811 46.267795 -79.510827 -40.573270 18.882201 13.465972 
0.236718 0.582549 0.987793 -44.077275 1.812019 90.855235 6.163690 -0.712459 -6.773868 -4.308331 -9.149184 -2.602479 0.469708 0.134302 -13.796030 0.000000 -0.000000 0.000000 -6.718499 -7.932196 -5.457400 1.621910 -10.865918 19.595023 7.581551 -16.525103 -19.841039 0.000000 -0.000000 0.000000 -3.451596 3.328113 10.376723 -1.605343 -2.194644 -6.820544 -0.713793 -0.648337 0.888621 16.736882 -8.355511 -4.102127 1.435431 -8.527761 14.462831 -31.070212 -2.618604 -2.889366 -40.650128 -2.883375 4.707163 14.894478 -22.858066 -15.441233 20.023144 -7.736052 1.154783 12.761724 10.631024 -14.654096 -3.499033 32.943501 -24.613018 -82.532265 41.403042 -86.655038 -48.876063 11.583118 4.852395 
0.233968 0.588263 0.987466 -44.274091 1.807421 90.609985 6.641283 -0.703643 -6.567359 -4.265071 -9.058489 -2.835541 0.232816 0.264865 -13.453326 0.000000 -0.000000 0.000000 -6.415832 -7.857397 -4.694332 1.946236 -11.177187 18.313307 7.120911 -16.307328 -19.906147 0.000000 -0.000000 0.000000 -3.458539 3.520489 10.370423 -1.479212 -2.115904 -6.775435 -0.617584 -0.678236 0.993089 16.660488 -8.212217 -5.061332 1.026651 -9.162681 15.122336 -30.936291 -2.706173 -3.168777 -40.970729 -2.715951 4.898247 14.902339 -22.130973 -15.711972 19.381945 -7.597221 1.388624 12.976451 10.952991 -14.500243 -2.054519 33.723215 -22.972482 -84.002060 42.059298 -87.210771 -47.356648 11.665452 4.079507 
0.231192 0.594091 0.987304 -44.561497 1.820871 90.254183 7.055372 -0.220041 -6.450064 -4.112159 -8.787538 -2.537146 -0.278645 -0.135692 -13.403789 0.000000 -0.000000 0.000000 -5.894155 -8.360956 -3.910409 1.751791 -11.323180 17.119025 6.968870 -15.560560 -20.179324 0.000000 -0.000000 0.000000 -3.203386 3.543542 10.908687 -1.721152 -2.160233 -7.349944 -0.377668 -0.399584 1.079212 15.879081 -8.382961 -4.812560 1.403572 -8.734531 15.139355 -30.634499 -3.019397 -2.906760 -41.477849 -2.551851 3.639004 14.644233 -21.350334 -15.840639 18.969857 -8.706065 2.492996 13.128353 11.110234 -14.043140 -0.644972 31.746746 -21.651513 -86.214405 49.374030 -84.432916 -43.324594 18.705750 9.839344 
0.228920 0.600069 0.987288 -44.929550 1.829887 90.171163 7.417936 -0.033133 -6.568329 -3.873585 -8.261428 -2.370744 -0.664186 -0.195306 -13.083094 0.000000 -0.000000 0.000000 -5.483443 -8.755225 -3.500435 1.810095 -11.318955 16.068752 6.781999 -14.888603 -20.141904 0.000000 -0.000000 0.000000 -2.681065 3.470611 10.733691 -1.994255 -2.102980 -7.215146 -0.366101 -0.110065 1.129065 15.167883 -8.520343 -4.962029 1.665149 -8.299789 15.122646 -30.615998 -2.795995 -2.893503 -41.653826 -2.579877 2.798588 14.463173 -21.334136 -16.116664 17.762541 -9.527742 3.543171 13.264410 10.639446 -13.374357 -0.688008 29.216835 -19.459729 -91.340229 58.122639 -83.174592 -36.910186 25.464698 15.558481 
